<svg width="22" height="24" viewBox="0 0 22 24" fill="none" xmlns="http://www.w3.org/2000/svg">
<path d="M19.5556 17.1429V11.2C18.9444 11.3143 18.3333 11.4286 17.7222 11.4286H17.1111V18.2857H4.88889V10.2857C4.88889 7.08571 7.57778 4.57143 11 4.57143C11.1222 3.08571 11.8556 1.82857 12.8333 0.8C12.4667 0.342857 11.7333 0 11 0C9.65556 0 8.55556 1.02857 8.55556 2.28571V2.62857C4.88889 3.65714 2.44444 6.74286 2.44444 10.2857V17.1429L0 19.4286V20.5714H22V19.4286L19.5556 17.1429ZM8.55556 21.7143C8.55556 22.9714 9.65556 24 11 24C12.3444 24 13.4444 22.9714 13.4444 21.7143H8.55556ZM22 5.14286C22 7.31429 20.0444 9.14286 17.7222 9.14286C15.4 9.14286 13.4444 7.31429 13.4444 5.14286C13.4444 2.97143 15.4 1.14286 17.7222 1.14286C20.0444 1.14286 22 2.97143 22 5.14286Z" fill="#9EC6F3"/>
</svg>
