<svg width="30" height="32" viewBox="0 0 30 32" fill="none" xmlns="http://www.w3.org/2000/svg">
<path d="M30 32H0V0H30V32Z" stroke="#E5E7EB"/>
<g clip-path="url(#clip0_264_4123)">
<g clip-path="url(#clip1_264_4123)">
<path d="M8.29376 15.2937C7.90314 15.6843 7.90314 16.3187 8.29376 16.7093L13.2938 21.7093C13.6844 22.0999 14.3188 22.0999 14.7094 21.7093C15.1 21.3187 15.1 20.6843 14.7094 20.2937L11.4125 16.9999H21C21.5531 16.9999 22 16.553 22 15.9999C22 15.4468 21.5531 14.9999 21 14.9999H11.4156L14.7063 11.7062C15.0969 11.3155 15.0969 10.6812 14.7063 10.2905C14.3156 9.8999 13.6813 9.8999 13.2906 10.2905L8.29064 15.2905L8.29376 15.2937Z" fill="#374151"/>
</g>
</g>
<defs>
<clipPath id="clip0_264_4123">
<rect width="14" height="16" fill="white" transform="translate(8 8)"/>
</clipPath>
<clipPath id="clip1_264_4123">
<path d="M8 8H22V24H8V8Z" fill="white"/>
</clipPath>
</defs>
</svg>
