<svg width="25" height="25" viewBox="0 0 25 25" fill="none" xmlns="http://www.w3.org/2000/svg">
<g clip-path="url(#clip0_229_4336)">
<g clip-path="url(#clip1_229_4336)">
<path d="M7.73906 3.7875L7.25156 5.25H3.75C2.09531 5.25 0.75 6.59531 0.75 8.25V20.25C0.75 21.9047 2.09531 23.25 3.75 23.25H21.75C23.4047 23.25 24.75 21.9047 24.75 20.25V8.25C24.75 6.59531 23.4047 5.25 21.75 5.25H18.2484L17.7609 3.7875C17.4562 2.86875 16.5984 2.25 15.6281 2.25H9.87188C8.90156 2.25 8.04375 2.86875 7.73906 3.7875ZM12.75 9.75C13.9435 9.75 15.0881 10.2241 15.932 11.068C16.7759 11.9119 17.25 13.0565 17.25 14.25C17.25 15.4435 16.7759 16.5881 15.932 17.432C15.0881 18.2759 13.9435 18.75 12.75 18.75C11.5565 18.75 10.4119 18.2759 9.56802 17.432C8.72411 16.5881 8.25 15.4435 8.25 14.25C8.25 13.0565 8.72411 11.9119 9.56802 11.068C10.4119 10.2241 11.5565 9.75 12.75 9.75Z" fill="#9CA3AF"/>
</g>
</g>
<defs>
<clipPath id="clip0_229_4336">
<rect width="24" height="24" fill="white" transform="translate(0.75 0.75)"/>
</clipPath>
<clipPath id="clip1_229_4336">
<path d="M0.75 0.75H24.75V24.75H0.75V0.75Z" fill="white"/>
</clipPath>
</defs>
</svg>
