<svg width="22" height="22" viewBox="0 0 22 22" fill="none" xmlns="http://www.w3.org/2000/svg">
<path d="M17.636 14.6699L19.352 9.51994C20.852 5.02194 21.602 2.77294 20.414 1.58594C19.226 0.398938 16.978 1.14794 12.479 2.64794L7.32999 4.36394C3.69999 5.57394 1.88499 6.17994 1.36999 7.06694C1.1294 7.48162 1.00269 7.95252 1.00269 8.43194C1.00269 8.91136 1.1294 9.38226 1.36999 9.79694C1.88499 10.6849 3.69999 11.2899 7.32999 12.5009C7.91399 12.6949 8.20499 12.7919 8.44899 12.9549C8.68499 13.1129 8.88799 13.3159 9.04599 13.5519C9.20899 13.7959 9.30599 14.0869 9.49999 14.6699C10.71 18.2999 11.316 20.1159 12.203 20.6319C12.6178 20.8727 13.0889 20.9995 13.5685 20.9995C14.0481 20.9995 14.5192 20.8727 14.934 20.6319C15.821 20.1159 16.425 18.3009 17.636 14.6699Z" stroke="black" stroke-width="1.5"/>
<path d="M15.212 7.84749C15.3495 7.70679 15.4263 7.51767 15.4256 7.32091C15.425 7.12415 15.3471 6.93552 15.2087 6.79567C15.0703 6.65582 14.8825 6.57596 14.6858 6.57331C14.489 6.57066 14.2991 6.64543 14.157 6.78149L15.212 7.84749ZM9.66199 13.3355L15.212 7.84749L14.157 6.78149L8.60699 12.2695L9.66199 13.3355Z" fill="black"/>
</svg>
